<?xml version="1.0" encoding="UTF-8" standalone="no"?>
<!-- Created with Inkscape (http://www.inkscape.org/) -->

<svg
   xmlns:dc="http://purl.org/dc/elements/1.1/"
   xmlns:cc="http://creativecommons.org/ns#"
   xmlns:rdf="http://www.w3.org/1999/02/22-rdf-syntax-ns#"
   xmlns:svg="http://www.w3.org/2000/svg"
   xmlns="http://www.w3.org/2000/svg"
   xmlns:sodipodi="http://sodipodi.sourceforge.net/DTD/sodipodi-0.dtd"
   xmlns:inkscape="http://www.inkscape.org/namespaces/inkscape"
   width="744.09003"
   height="322"
   id="svg2"
   version="1.1"
   inkscape:version="0.48.2 r9819"
   sodipodi:docname="Neues Dokument 1">
  <defs
     id="defs4" />
  <sodipodi:namedview
     id="base"
     pagecolor="#ffffff"
     bordercolor="#666666"
     borderopacity="1.0"
     inkscape:pageopacity="0.0"
     inkscape:pageshadow="2"
     inkscape:zoom="0.35"
     inkscape:cx="478.79008"
     inkscape:cy="268.06972"
     inkscape:document-units="px"
     inkscape:current-layer="layer1"
     showgrid="false"
     inkscape:window-width="1600"
     inkscape:window-height="823"
     inkscape:window-x="-9"
     inkscape:window-y="-9"
     inkscape:window-maximized="1" />
  <metadata
     id="metadata7">
    <rdf:RDF>
      <cc:Work
         rdf:about="">
        <dc:format>image/svg+xml</dc:format>
        <dc:type
           rdf:resource="http://purl.org/dc/dcmitype/StillImage" />
        <dc:title></dc:title>
      </cc:Work>
    </rdf:RDF>
  </metadata>
  <g
     inkscape:label="Ebene 1"
     inkscape:groupmode="layer"
     id="layer1"
     transform="translate(0,-730.36218)">
    <rect
       style="fill:#007b63;fill-opacity:1;stroke:none"
       id="rect2992"
       width="742.80212"
       height="322.62949"
       x="0.66352266"
       y="731.00287" />
    <path
       d="m 256.23788,850.05919 c -26.43251,0 -47.86061,21.42809 -47.86061,47.8606 0,26.43253 21.4281,47.86059 47.86061,47.86059 26.43252,0 47.8554,-21.42806 47.8554,-47.86059 0,-26.43251 -21.42288,-47.8606 -47.8554,-47.8606 m 0.0577,-40.35922 c 23.99822,0 45.7502,9.61183 61.62015,25.19448 l 7.22977,-21.44899 218.66899,0.004 -1.80744,5.67307 c 11.92076,-6.02828 25.38776,-9.42377 39.654,-9.42377 48.58151,0 87.96386,39.38759 87.96386,87.96909 0,48.58152 -39.38235,87.96905 -87.96386,87.96905 -48.5815,0 -87.96908,-39.38753 -87.96908,-87.96905 0,-14.43864 3.47906,-28.031 9.64317,-40.05623 l -14.79387,0.004 -40.66219,126.22308 -46.46585,0 40.67788,-126.22308 -18.4192,0 -40.68308,126.22308 -46.63302,0 40.68309,-126.2283 -42.42262,0.004 c 6.185,12.03046 9.64317,25.59149 9.64317,40.05102 0,48.58147 -39.38237,87.96908 -87.96387,87.96908 -22.76539,0 -43.49872,-8.6401 -59.11794,-22.8228 l -6.97902,21.0254 -118.794824,0.013 55.847834,-173.23744 45.43154,0 -41.55025,129.06492 47.86062,0 c -6.79618,-12.48499 -10.66704,-26.79301 -10.66704,-42.01001 0,-48.5815 39.38236,-87.96908 87.96908,-87.96908 m 325.30279,40.35922 c -26.43251,0 -47.86062,21.4281 -47.86062,47.86061 0,26.43252 21.42811,47.86065 47.86062,47.86065 26.43252,0 47.86061,-21.42813 47.86061,-47.86065 0,-26.43251 -21.42809,-47.86061 -47.86061,-47.86061"
       inkscape:connector-curvature="0"
       id="path36"
       style="fill:#ffffff;fill-opacity:1;fill-rule:nonzero;stroke:none" />
  </g>
</svg>
